<?xml version="1.0" encoding="UTF-8"?>
<svg version="1.1" xmlns="http://www.w3.org/2000/svg" width="710" height="710">
<path d="M0 0 C234.3 0 468.6 0 710 0 C710 234.3 710 468.6 710 710 C475.7 710 241.4 710 0 710 C0 475.7 0 241.4 0 0 Z " fill="#FEFEFE" transform="translate(0,0)"/>
<path d="M0 0 C4.46524789 4.17312887 7.97930757 8.81139575 11.5625 13.75 C12.17383789 14.58619873 12.78517578 15.42239746 13.41503906 16.28393555 C18.90429121 23.81495639 24.27939527 31.42483948 29.63134766 39.05371094 C37.09606278 49.6688927 44.72260614 60.17010033 52.32666016 70.68554688 C55.05263138 74.45593018 57.77623069 78.22802586 60.5 82 C63.84311835 86.62936295 67.18661935 91.25844826 70.53125 95.88671875 C71.40233398 97.09231445 71.40233398 97.09231445 72.29101562 98.32226562 C73.39372692 99.84841806 74.49658099 101.37446735 75.59960938 102.90039062 C76.5939822 104.27672484 77.58689328 105.65411669 78.578125 107.03271484 C79.53877178 108.36185148 80.50776878 109.68498676 81.484375 111.00244141 C85 115.78581461 85 115.78581461 85 118 C85.66 118 86.32 118 87 118 C87.27674561 117.41621582 87.55349121 116.83243164 87.83862305 116.23095703 C88.94982994 114.09637461 90.16510305 112.2463571 91.58203125 110.3046875 C92.35172241 109.24495728 92.35172241 109.24495728 93.13696289 108.16381836 C93.68989014 107.4085083 94.24281738 106.65319824 94.8125 105.875 C95.99483622 104.24873031 97.17712661 102.6224273 98.359375 100.99609375 C98.96458984 100.16577637 99.56980469 99.33545898 100.19335938 98.47998047 C102.99168562 94.63871046 105.77857448 90.78921524 108.5625 86.9375 C109.0997168 86.1942749 109.63693359 85.4510498 110.19042969 84.68530273 C115.85602735 76.83413511 121.43182365 68.92040926 127 61 C134.69995628 50.04725691 142.47228626 39.15158366 150.328125 28.31005859 C152.055174 25.92376513 153.77813876 23.53457031 155.5 21.14453125 C156.36347046 19.94654907 156.36347046 19.94654907 157.24438477 18.72436523 C158.33392231 17.21252388 159.42299029 15.70034396 160.51147461 14.18774414 C163.95267483 9.41639728 167.45446274 4.69431337 171 0 C171.99 0.495 171.99 0.495 173 1 C173.59090505 3.41002637 174.04640703 5.74268864 174.4375 8.1875 C174.56455322 8.93999023 174.69160645 9.69248047 174.82250977 10.46777344 C175.95753428 17.3520503 176.89287088 24.266111 177.73413086 31.19213867 C178.52381634 37.37949376 179.6517301 43.4725816 180.84741211 49.59106445 C182.9110759 60.29816636 184.68627855 71.03814715 186.3828125 81.80859375 C186.68593597 83.71806265 186.98931704 85.62749067 187.29293823 87.53688049 C187.92170941 91.495225 188.5484043 95.45388995 189.17333984 99.4128418 C189.96818769 104.44800254 190.76684101 109.48255003 191.56686592 114.51689053 C192.34022791 119.38473972 193.11153819 124.25291343 193.8828125 129.12109375 C194.02644352 130.02638762 194.17007454 130.93168148 194.31805801 131.86440849 C195.60165589 139.96170019 196.8824244 148.05709757 198.02294922 156.17602539 C199.03745215 163.38653584 200.19668291 170.57133424 201.37268066 177.75680542 C201.76116198 180.13070782 202.14787004 182.50489368 202.53417969 184.87915039 C203.35461584 189.91967934 204.17714069 194.95986614 205 200 C205.95533652 205.85157619 206.90975874 211.70329863 207.86193848 217.5553894 C208.23855873 219.86726793 208.61679312 222.1788783 208.99511719 224.49047852 C211.24737885 238.29655873 213.15081686 252.13112644 215 266 C199.16 266 183.32 266 167 266 C163.55428328 247.62284416 163.55428328 247.62284416 162.25415039 239.20117188 C162.02904533 237.76319748 162.02904533 237.76319748 161.7993927 236.2961731 C161.31325448 233.18737492 160.83047095 230.07806589 160.34765625 226.96875 C160.0030497 224.76220911 159.6581908 222.55570761 159.31309509 220.34924316 C158.41006363 214.57213737 157.50970988 208.79461791 156.61016846 203.01696777 C155.17536675 193.80308792 153.7372516 184.58972621 152.29760551 175.37660217 C151.80246887 172.20465807 151.30897641 169.03246164 150.81568909 165.86022949 C149.05909016 154.59271887 147.24887644 143.33699503 145.31748295 132.09792328 C144.35188853 126.40806637 143.58173585 120.74222899 143 115 C142.34 115 141.68 115 141 115 C140.77957031 115.67804688 140.55914062 116.35609375 140.33203125 117.0546875 C138.61171508 120.85855375 136.24525672 123.84595018 133.6875 127.125 C129.12233877 133.08848017 124.76891276 139.15349333 120.5625 145.375 C115.77027115 152.45292987 110.86047195 159.42716946 105.8269043 166.33544922 C103.05424418 170.14400655 100.31142045 173.96864143 97.62109375 177.8359375 C97.07590088 178.6182373 96.53070801 179.40053711 95.96899414 180.20654297 C94.93112431 181.69984197 93.89752794 183.19612315 92.86889648 184.69580078 C92.40427002 185.36337402 91.93964355 186.03094727 91.4609375 186.71875 C91.05665527 187.30591797 90.65237305 187.89308594 90.23583984 188.49804688 C89 190 89 190 86 192 C79.61733262 183.20130346 73.2521696 174.39206788 67 165.5 C62.29421456 158.8086445 57.52754167 152.16371783 52.72802734 145.53930664 C49.76259502 141.44539984 46.81416631 137.34055218 43.88867188 133.21801758 C39.73411553 127.36423485 35.4815983 121.60941774 31 116 C27.54762023 130.56855292 25.73436944 145.33670869 23.8046875 160.16796875 C23.6979068 160.98653351 23.5911261 161.80509827 23.48110962 162.64846802 C22.94553127 166.75526785 22.41342757 170.86244343 21.88916016 174.97070312 C20.67875893 184.36890139 19.25753259 193.70874126 17.66503906 203.04956055 C16.88714879 207.62508101 16.22570439 212.21054352 15.625 216.8125 C15.38158007 218.63412389 15.13808387 220.45573759 14.89453125 222.27734375 C14.75869629 223.30069824 14.62286133 224.32405273 14.48291016 225.37841797 C13.68692229 231.34792451 12.87702754 237.31554819 12.0690918 243.28344727 C11.0445292 250.85542437 10.02253035 258.42774819 9 266 C-7.17 266 -23.34 266 -40 266 C-39.42592095 258.53697237 -38.89232192 251.74597054 -37.60693359 244.48974609 C-36.85461653 240.16407429 -36.18414691 235.82816976 -35.51953125 231.48828125 C-35.38483429 230.60997147 -35.25013733 229.73166168 -35.11135864 228.82673645 C-34.67710572 225.98885437 -34.24454659 223.15071878 -33.8125 220.3125 C-33.66204224 219.3253299 -33.51158447 218.33815979 -33.35656738 217.32107544 C-30.02236174 195.41261329 -26.88757018 173.47667808 -23.78320312 151.53466797 C-21.20123299 133.28651755 -18.5109797 115.06822855 -15.5625 96.875 C-15.11809638 94.12245924 -14.67434552 91.36981326 -14.23046875 88.6171875 C-13.52886357 84.26755028 -12.82395815 79.91847769 -12.11328125 75.5703125 C-10.5947192 66.20795431 -9.31616175 56.83169883 -8.12670898 47.421875 C-7.2867799 40.89166012 -6.25928336 34.42360868 -5.05688477 27.95117188 C-3.98184325 22.11340511 -3.21661072 16.2620612 -2.52734375 10.3671875 C-1.96317472 6.76486374 -1.06760448 3.48189677 0 0 Z " fill="#DB2221" transform="translate(275,240)"/>
<path d="M0 0 C2.36774492 0.05020183 4.7355917 0.09582196 7.10351562 0.13671875 C12.88374465 0.24649854 18.66014822 0.41344217 24.4375 0.625 C24.50779756 22.10546959 24.56058934 43.58592002 24.59293652 65.06648159 C24.60835972 75.04183756 24.62936157 85.01712176 24.66381836 94.99243164 C24.69386071 103.69395231 24.71310798 112.39542097 24.71976548 121.09699208 C24.72365278 125.69801692 24.73269194 130.29889306 24.75469017 134.89986992 C24.77529063 139.24434391 24.78128706 143.58861016 24.77682304 147.93312836 C24.77763785 149.51436816 24.78346155 151.09561606 24.79511642 152.67681313 C25.00993 183.36637054 15.15099849 211.10231954 -4.5625 234.625 C-5.12710938 235.32496094 -5.69171875 236.02492188 -6.2734375 236.74609375 C-19.36180506 252.50743778 -40.63534674 264.95606395 -61.05566406 267.40966797 C-76.21270066 268.71162612 -92.25427879 269.39706651 -106.5625 263.625 C-107.243125 263.35123535 -107.92375 263.0774707 -108.625 262.79541016 C-118.67458925 258.65668423 -127.22184414 253.63598609 -135.5625 246.625 C-136.41070312 245.93921875 -137.25890625 245.2534375 -138.1328125 244.546875 C-158.30198252 227.47579066 -170.90236264 201.61197525 -174.5625 175.625 C-174.5625 172.325 -174.5625 169.025 -174.5625 165.625 C-158.0625 165.625 -141.5625 165.625 -124.5625 165.625 C-123.5725 171.235 -122.5825 176.845 -121.5625 182.625 C-115.49613584 197.0629467 -106.40395337 209.30126186 -91.5625 215.5625 C-81.29976009 218.50253759 -67.26106344 218.02011938 -57.5625 213.625 C-41.74196703 204.73345995 -31.55268905 192.15441903 -26.5625 174.625 C-24.88662656 166.69506788 -24.26089272 158.97827639 -24.24365234 150.88964844 C-24.23360672 149.78574265 -24.2235611 148.68183685 -24.21321106 147.54447937 C-24.18262905 143.94111595 -24.16541396 140.33782594 -24.1484375 136.734375 C-24.12970573 134.21803161 -24.11013085 131.70169436 -24.0897522 129.18536377 C-24.04384534 123.26778481 -24.00636187 117.35020069 -23.97307932 111.43253827 C-23.93088535 104.02397075 -23.87539797 96.61551219 -23.8203125 89.20703125 C-23.72379785 76.01307363 -23.64032066 62.81908114 -23.5625 49.625 C-37.7525 49.625 -51.9425 49.625 -66.5625 49.625 C-64.50950084 45.51900168 -61.98955428 42.418947 -59 39 C-58.46205811 38.37826904 -57.92411621 37.75653809 -57.36987305 37.1159668 C-54.24680992 33.51778605 -51.07889205 29.96404549 -47.875 26.4375 C-44.11799539 22.30141024 -40.57725474 18.02445436 -37.09375 13.65625 C-36.2584375 12.6559375 -35.423125 11.655625 -34.5625 10.625 C-33.91045593 9.40653381 -33.91045593 9.40653381 -33.24523926 8.16345215 C-25.72116055 -3.44167927 -12.26353183 -0.45064632 0 0 Z " fill="#D71E1C" transform="translate(205.5625,239.375)"/>
<path d="M0 0 C12.15412295 -0.07003839 24.30819655 -0.12308118 36.4624815 -0.15543652 C42.10844323 -0.17097879 47.75426517 -0.19200347 53.40014648 -0.22631836 C58.86614636 -0.25932555 64.33201326 -0.27693856 69.79810524 -0.28463173 C71.86571148 -0.29010207 73.93331187 -0.30077967 76.00086021 -0.31719017 C101.39413872 -0.51040959 122.50388649 3.06388171 145 15 C146.05445313 15.54527344 147.10890625 16.09054687 148.1953125 16.65234375 C176.76130603 32.23033222 196.60315189 61.50359494 205.91870117 92.11743164 C209.31162123 103.97696254 210.49306313 115.48680181 210.39111328 127.76391602 C210.37498096 130.06521592 210.3910993 132.36476707 210.41015625 134.66601562 C210.4233079 144.47845824 209.30924278 153.45527605 207 163 C206.65026123 164.48777954 206.65026123 164.48777954 206.29345703 166.00561523 C198.93489576 196.29667911 179.4567306 223.56883618 153 240 C135.34660066 250.60388752 116.73828526 257 96 257 C96 240.17 96 223.34 96 206 C100.95 205.01 105.9 204.02 111 203 C129.61880537 197.22175006 144.38312461 187.29532858 154 170 C155.42309971 167.14712875 156.70892583 164.25395868 157.9375 161.3125 C158.21996582 160.63646729 158.50243164 159.96043457 158.79345703 159.26391602 C166.02336027 140.87442885 165.72293416 117.13885101 158.13818359 98.93115234 C154.45823485 90.55127947 150.18412051 82.80650523 144 76 C143.34644531 75.25492187 142.69289063 74.50984375 142.01953125 73.7421875 C129.60224208 60.3975598 111.88034012 53.37459294 94 51 C89.27494331 50.85848453 84.571017 51.0282177 79.84765625 51.18359375 C77.10495718 51.23346015 74.36208649 51.26562729 71.61914062 51.29882812 C67.33337316 51.35248249 63.05264244 51.42887542 58.76977539 51.59985352 C35.78207898 52.47875627 35.78207898 52.47875627 29.76541138 48.53546143 C26.07677462 44.72775813 24.06309722 40.2384066 22.06582642 35.384552 C20.28872312 31.40867455 17.79891112 27.9481689 15.33203125 24.375 C14.40748905 22.97875405 13.48623665 21.5803239 12.56835938 20.1796875 C11.16923143 18.05694145 9.7693572 15.93469884 8.36791992 13.81347656 C6.97892162 11.71031792 5.59274225 9.60532548 4.20703125 7.5 C3.5697686 6.53779541 3.5697686 6.53779541 2.91963196 5.55615234 C0 1.11359116 0 1.11359116 0 0 Z " fill="#DB2423" transform="translate(460,249)"/>
<path d="M0 0 C3.39145307 1.69572653 4.7940711 2.58254628 7.25 5.1875 C9.68033794 7.69523724 12.15505658 10.04696237 14.8125 12.3125 C18.939483 15.86473875 22.72575256 19.71014157 26.55078125 23.58203125 C29.30398806 26.30010943 32.17704031 28.82431378 35.1171875 31.3359375 C37.6902363 33.61004287 40.07543566 36.04742371 42.45703125 38.51953125 C44.13707372 40.21835505 44.13707372 40.21835505 47 42 C47.36914349 44.43252754 47.36914349 44.43252754 47.36076355 47.55545044 C47.36488754 48.73618134 47.36901154 49.91691223 47.3732605 51.13342285 C47.36247467 52.43533569 47.35168884 53.73724854 47.34057617 55.07861328 C47.3397303 56.4582009 47.34020426 57.83778988 47.34190369 59.21737671 C47.34276663 62.96932231 47.32509286 66.72098186 47.30418181 70.47286081 C47.28546459 74.39130623 47.2836685 78.30975775 47.28010559 82.22824097 C47.27077051 89.65142455 47.24613704 97.07447605 47.21605712 104.49760139 C47.18255852 112.94728699 47.16603855 121.39697881 47.15097082 129.84671426 C47.11958865 147.23123301 47.06455844 164.61557061 47 182 C31.49 182 15.98 182 0 182 C0 121.94 0 61.88 0 0 Z " fill="#D81D1C" transform="translate(496,324)"/>
<path d="M0 0 C4.69138012 4.21021293 7.65762628 8.9882684 10.875 14.375 C15.72997109 22.37138147 20.73052541 30.24928513 25.875 38.0625 C40 59.58400691 40 59.58400691 40 63 C14.26 63 -11.48 63 -38 63 C-37.19459767 59.7783907 -36.68091325 58.18686779 -35.0234375 55.515625 C-34.39973267 54.50218018 -34.39973267 54.50218018 -33.76342773 53.46826172 C-33.30524658 52.73623535 -32.84706543 52.00420898 -32.375 51.25 C-31.65389038 50.08428467 -31.65389038 50.08428467 -30.91821289 48.89501953 C-29.28497165 46.25946249 -27.64305709 43.62944784 -26 41 C-24.76170126 39.01303173 -23.52342056 37.02605222 -22.28515625 35.0390625 C-19.11780099 29.96169359 -15.9419377 24.88969785 -12.76416016 19.81884766 C-11.12396749 17.19808036 -9.48844381 14.57448764 -7.85546875 11.94921875 C-7.38890869 11.19979004 -6.92234863 10.45036133 -6.44165039 9.67822266 C-5.58696268 8.30482683 -4.73322777 6.93083742 -3.88061523 5.55615234 C-1.11173447 1.11173447 -1.11173447 1.11173447 0 0 Z " fill="#D61B1A" transform="translate(361,443)"/>
<path d="M0 0 C1.27310312 0.93441535 2.543388 1.87267111 3.8125 2.8125 C4.52019531 3.33457031 5.22789062 3.85664063 5.95703125 4.39453125 C9.79485224 7.41048618 9.79485224 7.41048618 11 9 C10.6875 11.1875 10.6875 11.1875 10 13 C6 9 2 5 -2 1 C-1.34 0.67 -0.68 0.34 0 0 Z " fill="#D62C2F" transform="translate(594,312)"/>
<path d="M0 0 C6.37120686 -0.4633605 11.59554303 0.36712851 17 4 C18.2578125 6.140625 18.2578125 6.140625 19 8 C18.32582031 7.72414063 17.65164063 7.44828125 16.95703125 7.1640625 C13.5584527 5.82618085 10.12928907 4.59731761 6.6875 3.375 C6.04232422 3.14554687 5.39714844 2.91609375 4.73242188 2.6796875 C3.15525821 2.1189182 1.57767216 1.55933709 0 1 C0 0.67 0 0.34 0 0 Z " fill="#D73435" transform="translate(568,302)"/>
<path d="M0 0 C0 3.56958511 -0.86756673 4.7488052 -2.8125 7.6875 C-3.33457031 8.49574219 -3.85664063 9.30398438 -4.39453125 10.13671875 C-4.92433594 10.75160156 -5.45414062 11.36648438 -6 12 C-6.99 12 -7.98 12 -9 12 C-6.03 8.04 -3.06 4.08 0 0 Z " fill="#F0DED9" transform="translate(408,367)"/>
<path d="M0 0 C7.50769231 -0.36923077 7.50769231 -0.36923077 10 1.5 C10.495 2.2425 10.495 2.2425 11 3 C9 4 9 4 6.8359375 3.44140625 C6.02382813 3.15136719 5.21171875 2.86132812 4.375 2.5625 C3.55773437 2.27503906 2.74046875 1.98757813 1.8984375 1.69140625 C1.27195312 1.46324219 0.64546875 1.23507812 0 1 C0 0.67 0 0.34 0 0 Z " fill="#DA4E4F" transform="translate(568,302)"/>
<path d="M0 0 C0.66 0.66 1.32 1.32 2 2 C-0.31 4.64 -2.62 7.28 -5 10 C-5 6.60406522 -4.47834052 5.93380119 -2.5 3.3125 C-2.0359375 2.68988281 -1.571875 2.06726563 -1.09375 1.42578125 C-0.7328125 0.95527344 -0.371875 0.48476563 0 0 Z " fill="#E95553" transform="translate(432,259)"/>
<path d="M0 0 C0.99 0.33 1.98 0.66 3 1 C4.6875 4.5625 4.6875 4.5625 6 8 C5.01 8.495 5.01 8.495 4 9 C0 3.375 0 3.375 0 0 Z " fill="#D92B2D" transform="translate(473,267)"/>
<path d="M0 0 C4.52346473 2.26173236 5.05828666 3.53405933 7 8 C6.01 8.495 6.01 8.495 5 9 C3.35 6.03 1.7 3.06 0 0 Z " fill="#DD403D" transform="translate(462,252)"/>
</svg>
